<?xml version="1.0" standalone="no"?>
<svg viewBox="0 0 200 200" xmlns="http://www.w3.org/2000/svg">
  <path fill="#8A3FFC" d="M45.8,-72.6C59.8,-71.2,72.1,-59.9,74,-46.2C75.9,-32.4,67.5,-16.2,65.4,-1.2C63.4,13.8,67.6,27.6,64,38.5C60.5,49.4,49.1,57.4,37.1,61.6C25.2,65.7,12.6,66.1,1.4,63.7C-9.8,61.3,-19.7,56.3,-33.5,53.1C-47.2,50,-64.9,48.9,-70.2,40.3C-75.5,31.8,-68.3,15.9,-67.9,0.2C-67.5,-15.4,-73.8,-30.8,-69.9,-41.7C-66,-52.6,-51.9,-59,-38.5,-60.8C-25.2,-62.5,-12.6,-59.7,1.6,-62.5C15.9,-65.4,31.7,-73.9,45.8,-72.6Z" transform="translate(100 100)" />
</svg>
