<?xml version="1.0" standalone="no"?>
<svg viewBox="0 0 200 200" xmlns="http://www.w3.org/2000/svg">
  <path fill="#FFD6E8" d="M31.6,-54.8C42.2,-48.6,52.8,-42.6,53.2,-33.5C53.5,-24.4,43.5,-12.2,46.9,2C50.3,16.2,67.3,32.4,68.7,44.5C70.1,56.6,56,64.6,42,61.8C27.9,59,14,45.5,-0.9,47.1C-15.8,48.7,-31.6,65.4,-40.5,65.2C-49.5,65.1,-51.6,48,-55.7,34.3C-59.8,20.7,-65.9,10.3,-65.4,0.3C-64.9,-9.8,-57.8,-19.5,-51.8,-29.8C-45.7,-40.1,-40.7,-50.9,-32.2,-58.4C-23.8,-65.9,-11.9,-70,-0.7,-68.8C10.5,-67.6,21,-61,31.6,-54.8Z" transform="translate(100 100)" />
</svg>
